# xmcd CD database file
#
# Track frame offsets:
#	150
#	12950
#	27225
#	40620
#	61762
#	81002
#	101487
#	114652
#	124150
#	138320
#	151977
#	166407
#	182057
#	204220
#	217170
#	235872
#	274670
#	289020
#
# Disc length: 4040 seconds
#
# Revision: 3
# Processed by: cddbd v1.5.2PL0 Copyright (c) Steve Scherf et al.
# Submitted via: CDex 1.79
#
DISCID=f10fc612
DTITLE=Various Artist - ??? ???????
DYEAR=1999
DGENRE=Soundtrack
TTITLE0=????????/?????????
TTITLE1=???????/?????????????
TTITLE2=??????/?????????
TTITLE3=???????/??????
TTITLE4=???????/?????
TTITLE5=???????/????????
TTITLE6=??????????/?????
TTITLE7=????/?????????????
TTITLE8=????????/?????????????????????
TTITLE9=???E????/??????????
TTITLE10=???????????????/????
TTITLE11=???????????????/E.T.
TTITLE12=???????/??????
TTITLE13=?????????/?????
TTITLE14=??????????????/??????
TTITLE15=??????????/80??????
TTITLE16=??????????/??????
TTITLE17=??????????/???????
EXTD=YEAR: 1999
EXTT0=
EXTT1=
EXTT2=
EXTT3=
EXTT4=
EXTT5=
EXTT6=
EXTT7=
EXTT8=
EXTT9=
EXTT10=
EXTT11=
EXTT12=
EXTT13=
EXTT14=
EXTT15=
EXTT16=
EXTT17=
PLAYORDER=
